# xmcd
#
# Track frame offsets: 
#        151
#        17182
#        35589
#        48909
#        71880
#        88023
#        103897
#        122253
#        134757
#        159244
#        178054
#        191270
#        208308
#        227656
#
# Disc length: 3250 seconds
#
# Revision: 1
# Processed by: cddbd v1.5PL3 Copyright (c) Steve Scherf et al.
# Submitted via: ExactAudioCopy v0.90b4
#
DISCID=c50cb00e
DTITLE=Larry Thomas And Stars`n Bars - Waiting For The Riders
DYEAR=1900
DGENRE=
TTITLE0=All She Wants
TTITLE1=One Foot In The Grave
TTITLE2=Back To Texas
TTITLE3=Dancing This Close
TTITLE4=Proud Kentucky Ways
TTITLE5=Shot Dooley
TTITLE6=I`ve Been Around
TTITLE7=Broken Cowboy
TTITLE8=Waiting For The Riders
TTITLE9=Emptiness Inside
TTITLE10=Little Bitty Dab Of You
TTITLE11=Trucker Paul
TTITLE12=Wilt Away The Same
TTITLE13=A Different Drum
EXTD=
EXTT0=
EXTT1=
EXTT2=
EXTT3=
EXTT4=
EXTT5=
EXTT6=
EXTT7=
EXTT8=
EXTT9=
EXTT10=
EXTT11=
EXTT12=
EXTT13=
PLAYORDER=
